<svg width="279" height="278" viewBox="0 0 279 278" fill="none" xmlns="http://www.w3.org/2000/svg">
<path d="M139.4 277.8C62.7 277.8 0.400024 215.6 0.400024 138.9C0.400024 62.2 62.7 0 139.4 0C216 0 278.3 62.2 278.3 138.9C278.3 215.6 216 277.8 139.4 277.8ZM139.4 271.8C212.8 271.8 272.3 212.4 272.3 138.9C272.3 65.4 212.8 6 139.4 6C65.9 6 6.40002 65.4 6.40002 138.9C6.40002 212.4 65.9 271.8 139.4 271.8ZM141.7 86L176.9 172.8L123.7 131L141.7 86ZM204.2 192.8L150.1 62.6C148.5 58.8 145.4 56.9 141.7 56.9C137.9 56.9 134.6 58.8 133.1 62.6L73.7 205.4H94L117.5 146.5L187.7 203.2C190.5 205.5 192.5 206.5 195.2 206.5C200.5 206.5 205.1 202.6 205.1 196.8C205.1 195.9 204.8 194.4 204.2 192.8Z" fill="black"/>
</svg>
