<?xml version="1.0" ?><svg viewBox="0 0 32 32" xmlns="http://www.w3.org/2000/svg"><title/><g data-name="template, video library, video template, cinema, movie, subtitle" id="template_video_library_video_template_cinema_movie_subtitle"><path d="M29,2H3A1,1,0,0,0,2,3V29a1,1,0,0,0,1,1H29a1,1,0,0,0,1-1V3A1,1,0,0,0,29,2ZM28,28H4V4H28Z"/><path d="M6.53,16.88a1,1,0,0,0,1-.05l6-4a1,1,0,0,0,0-1.66l-6-4a1,1,0,0,0-1,0A1,1,0,0,0,6,8v8A1,1,0,0,0,6.53,16.88ZM8,9.87,11.2,12,8,14.13Z"/><path d="M17,13h8a1,1,0,0,0,0-2H17a1,1,0,0,0,0,2Z"/><path d="M17,9h8a1,1,0,0,0,0-2H17a1,1,0,0,0,0,2Z"/><path d="M17,17h8a1,1,0,0,0,0-2H17a1,1,0,0,0,0,2Z"/><path d="M7,21H25a1,1,0,0,0,0-2H7a1,1,0,0,0,0,2Z"/><path d="M7,25H25a1,1,0,0,0,0-2H7a1,1,0,0,0,0,2Z"/></g></svg>