<svg viewBox="0 0 32 32" xmlns="http://www.w3.org/2000/svg"><g data-name="template, video library, video template, cinema, movie, subtitle"><path d="M29 2H3a1 1 0 0 0-1 1v26a1 1 0 0 0 1 1h26a1 1 0 0 0 1-1V3a1 1 0 0 0-1-1Zm-1 26H4V4h24Z" fill="#ffffff" class="fill-000000"></path><path d="M6.53 16.88a1 1 0 0 0 1-.05l6-4a1 1 0 0 0 0-1.66l-6-4a1 1 0 0 0-1 0A1 1 0 0 0 6 8v8a1 1 0 0 0 .53.88ZM8 9.87 11.2 12 8 14.13ZM17 13h8a1 1 0 0 0 0-2h-8a1 1 0 0 0 0 2ZM17 9h8a1 1 0 0 0 0-2h-8a1 1 0 0 0 0 2ZM17 17h8a1 1 0 0 0 0-2h-8a1 1 0 0 0 0 2ZM7 21h18a1 1 0 0 0 0-2H7a1 1 0 0 0 0 2ZM7 25h18a1 1 0 0 0 0-2H7a1 1 0 0 0 0 2Z" fill="#ffffff" class="fill-000000"></path></g></svg>