<?xml version="1.0" encoding="utf-8"?><svg version="1.1" id="Layer_1" xmlns="http://www.w3.org/2000/svg" xmlns:xlink="http://www.w3.org/1999/xlink" x="0px" y="0px" viewBox="0 0 55.2 38.4" style="enable-background:new 0 0 55.2 38.4" xml:space="preserve"><style type="text/css"><![CDATA[
	.st0{fill:#C1272D;}
	.st1{fill:#FDB913;}
	.st2{fill:#006A44;}
]]></style><g><path class="st0" d="M3.03,0h49.13c1.67,0,3.03,1.36,3.03,3.03v32.33c0,1.67-1.37,3.03-3.03,3.03H3.03C1.37,38.4,0,37.04,0,35.37 V3.03C0,1.36,1.37,0,3.03,0L3.03,0z"/><path class="st2" d="M55.2,26.04H0V3.03C0,1.36,1.37,0,3.03,0h49.13c1.67,0,3.03,1.36,3.03,3.03V26.04L55.2,26.04z"/><path class="st1" d="M55.2,12.36H0V3.03C0,1.36,1.37,0,3.03,0h49.13c1.67,0,3.03,1.36,3.03,3.03V12.36L55.2,12.36z"/></g></svg>