<?xml version="1.0" ?><svg enable-background="new 0 0 32 32" id="Layer_3" version="1.1" viewBox="0 0 32 32" xml:space="preserve" xmlns="http://www.w3.org/2000/svg" xmlns:xlink="http://www.w3.org/1999/xlink"><g><path d="M27.126,15.264C28.241,14.613,29,13.417,29,12.036v-1.571c0-1.477-1.202-2.679-2.679-2.679h-2.643   C22.202,7.786,21,8.987,21,10.464v1.571c0,1.379,0.757,2.573,1.868,3.225c-0.912,0.416-1.674,1.087-2.184,1.945   c-0.506-0.341-1.053-0.632-1.639-0.857C19.632,15.652,20,14.765,20,13.786v-0.888c0-1.716-1.396-3.112-3.112-3.112h-1.775   c-1.716,0-3.112,1.396-3.112,3.112v0.888c0,0.98,0.368,1.866,0.954,2.562c-0.586,0.225-1.133,0.516-1.639,0.857   c-0.51-0.857-1.272-1.528-2.184-1.945C10.243,14.609,11,13.415,11,12.036v-1.571c0-1.477-1.202-2.679-2.679-2.679H5.679   C4.202,7.786,3,8.987,3,10.464v1.571c0,1.382,0.759,2.578,1.874,3.228C3.182,16.043,2,17.706,2,19.643c0,0.552,0.448,1,1,1   s1-0.448,1-1c0-1.576,1.346-2.857,3-2.857c1.222,0,2.32,0.723,2.775,1.773C8.667,19.834,8,21.452,8,23.214c0,0.552,0.448,1,1,1   s1-0.448,1-1c0-2.993,2.691-5.429,6-5.429s6,2.436,6,5.429c0,0.552,0.448,1,1,1s1-0.448,1-1c0-1.762-0.667-3.38-1.775-4.655   c0.455-1.05,1.553-1.773,2.775-1.773c1.654,0,3,1.282,3,2.857c0,0.552,0.448,1,1,1s1-0.448,1-1   C30,17.706,28.818,16.043,27.126,15.264z M5,10.464c0-0.374,0.305-0.679,0.679-0.679h2.643C8.695,9.786,9,10.09,9,10.464v1.571   c0,0.965-0.785,1.75-1.75,1.75h-0.5C5.785,13.786,5,13,5,12.036V10.464z M14,13.786v-0.888c0-0.613,0.499-1.112,1.112-1.112h1.775   c0.613,0,1.112,0.499,1.112,1.112v0.888c0,1.103-0.897,2-2,2S14,14.889,14,13.786z M23,10.464c0-0.374,0.305-0.679,0.679-0.679   h2.643c0.374,0,0.679,0.305,0.679,0.679v1.571c0,0.965-0.785,1.75-1.75,1.75h-0.5c-0.965,0-1.75-0.785-1.75-1.75V10.464z"/></g></svg>