<svg viewBox="0 0 576 512" xmlns="http://www.w3.org/2000/svg"><path d="M572.5 238.1C518.3 115.5 410.9 32 288 32S57.69 115.6 3.469 238.1C1.563 243.4 0 251 0 256c0 4.977 1.562 12.6 3.469 17.03C57.72 396.5 165.1 480 288 480s230.3-83.58 284.5-206.1c1.9-5.3 3.5-13.8 3.5-17.9 0-5-1.6-12.6-3.5-17.9zM432 256c0 79.45-64.47 144-143.9 144-79.5 0-144.1-64.5-144.1-144s64.5-144 144-144 144 64.5 144 144zm-144-96c-2.3 0-5.6.4-8.5.8 5.3 9.2 8.5 19.8 8.5 31.2 0 35.35-28.65 64-64 64-11.4 0-22.9-3.3-31.3-8.5-.3 3-.7 6.1-.7 8.5 0 52.1 43 96 96 96s96-42.99 96-95.99S340.1 160 288 160z" fill="#ffffff" class="fill-000000"></path></svg>