<svg viewBox="0 0 512 512" xml:space="preserve" xmlns="http://www.w3.org/2000/svg"><path d="M178.375 287.812 73.094 393.094 32 352c-17.688 0-32 14.312-32 32v96c0 17.688 14.312 32 32 32h96c17.688 0 32-14.312 32-32l-41.095-41.062 105.281-105.312-45.811-45.814zM480 0h-96c-17.688 0-32 14.328-32 32l41.094 41.094-105.282 105.281 45.812 45.812 105.281-105.266L480 160c17.688 0 32-14.312 32-32V32c0-17.672-14.312-32-32-32zm0 352-41.095 41.094-105.28-105.281-45.812 45.812 105.281 105.312L352 480c0 17.688 14.312 32 32 32h96c17.688 0 32-14.312 32-32v-96c0-17.688-14.312-32-32-32zM160 32c0-17.672-14.312-32-32-32H32C14.312 0 0 14.328 0 32v96c0 17.688 14.312 32 32 32l41.094-41.078 105.281 105.266 45.812-45.812L118.906 73.094 160 32z" fill="#ffffff" class="fill-000000"></path></svg>