<?xml version="1.0" ?><svg height="24.0px" id="SVGRoot" version="1.1" viewBox="0 0 24.0 24.0" width="24.0px" xmlns="http://www.w3.org/2000/svg" xmlns:cc="http://creativecommons.org/ns#" xmlns:dc="http://purl.org/dc/elements/1.1/" xmlns:inkscape="http://www.inkscape.org/namespaces/inkscape" xmlns:rdf="http://www.w3.org/1999/02/22-rdf-syntax-ns#" xmlns:sodipodi="http://sodipodi.sourceforge.net/DTD/sodipodi-0.dtd" xmlns:svg="http://www.w3.org/2000/svg"><defs id="defs2"/><g id="layer1"><path d="M 3 2 A 1.0001 1.0001 0 0 0 2 3 L 2 21 A 1.0001 1.0001 0 0 0 3 22 L 8 22 L 16 22 L 21 22 A 1.0001 1.0001 0 0 0 22 21 L 22 6.1542969 A 1.0001 1.0001 0 0 0 21.738281 5.4785156 L 18.851562 2.3242188 A 1.0001 1.0001 0 0 0 18.113281 2 L 16 2 L 8 2 L 3 2 z M 4 4 L 7 4 L 7 9 A 1.0001 1.0001 0 0 0 8 10 L 16 10 A 1.0001 1.0001 0 0 0 17 9 L 17 4 L 17.673828 4 L 20 6.5429688 L 20 20 L 17 20 L 17 13 A 1.0001 1.0001 0 0 0 16 12 L 8 12 A 1.0001 1.0001 0 0 0 7 13 L 7 20 L 4 20 L 4 4 z M 9 4 L 15 4 L 15 8 L 9 8 L 9 4 z M 9 14 L 15 14 L 15 20 L 9 20 L 9 14 z " id="path11261" style="color:#000000;font-style:normal;font-variant:normal;font-weight:normal;font-stretch:normal;font-size:medium;line-height:normal;font-family:sans-serif;font-variant-ligatures:normal;font-variant-position:normal;font-variant-caps:normal;font-variant-numeric:normal;font-variant-alternates:normal;font-variant-east-asian:normal;font-feature-settings:normal;font-variation-settings:normal;text-indent:0;text-align:start;text-decoration:none;text-decoration-line:none;text-decoration-style:solid;text-decoration-color:#000000;letter-spacing:normal;word-spacing:normal;text-transform:none;writing-mode:lr-tb;direction:ltr;text-orientation:mixed;dominant-baseline:auto;baseline-shift:baseline;text-anchor:start;white-space:normal;shape-padding:0;shape-margin:0;inline-size:0;clip-rule:nonzero;display:inline;overflow:visible;visibility:visible;isolation:auto;mix-blend-mode:normal;color-interpolation:sRGB;color-interpolation-filters:linearRGB;solid-color:#000000;solid-opacity:1;vector-effect:none;fill:#000000;fill-opacity:1;fill-rule:nonzero;stroke:none;stroke-width:2;stroke-linecap:butt;stroke-linejoin:round;stroke-miterlimit:4;stroke-dasharray:none;stroke-dashoffset:0;stroke-opacity:1;color-rendering:auto;image-rendering:auto;shape-rendering:auto;text-rendering:auto;enable-background:accumulate;stop-color:#000000;stop-opacity:1;opacity:1"/></g></svg>