<svg viewBox="0 0 24 24" xmlns="http://www.w3.org/2000/svg"><path d="m21.32 10.05-1.74-.58a8 8 0 0 0-.43-1.05L20 6.79a1 1 0 0 0-.19-1.15l-1.45-1.42A1 1 0 0 0 17.21 4l-1.63.82a8 8 0 0 0-1.05-.43L14 2.68A1 1 0 0 0 13 2h-2a1 1 0 0 0-.95.68l-.58 1.74a8 8 0 0 0-1.05.43L6.79 4a1 1 0 0 0-1.15.19L4.22 5.64A1 1 0 0 0 4 6.79l.82 1.63a8 8 0 0 0-.43 1.05l-1.74.58A1 1 0 0 0 2 11v2a1 1 0 0 0 .68.95l1.74.58a8 8 0 0 0 .43 1.05L4 17.21a1 1 0 0 0 .19 1.15l1.42 1.42a1 1 0 0 0 1.18.22l1.63-.82a8 8 0 0 0 1.05.43l.58 1.74A1 1 0 0 0 11 22h2a1 1 0 0 0 .95-.68l.58-1.74a8 8 0 0 0 1.05-.43l1.63.82a1 1 0 0 0 1.15-.19l1.42-1.42a1 1 0 0 0 .22-1.15l-.82-1.63a8 8 0 0 0 .43-1.05l1.71-.53a1 1 0 0 0 .68-1v-2a1 1 0 0 0-.68-.95ZM12 16a4 4 0 1 1 4-4 4 4 0 0 1-4 4Z" fill="#ffffff" class="fill-464646"></path></svg>