<svg viewBox="0 0 512 512" xmlns="http://www.w3.org/2000/svg"><g data-name="1"><path d="M384.83 450H156a50.17 50.17 0 0 1-50.11-50.11V98.11A50.17 50.17 0 0 1 156 48h150.1a15 15 0 0 1 10.61 4.39l113.84 113.88a15 15 0 0 1 4.39 10.61v223A50.17 50.17 0 0 1 384.83 450ZM156 78a20.13 20.13 0 0 0-20.11 20.11v301.78A20.13 20.13 0 0 0 156 420h228.83a20.13 20.13 0 0 0 20.11-20.11v-216.8L299.85 78Z" fill="#ffffff" class="fill-000000"></path><path d="M419.94 191.88h-78.77a50.17 50.17 0 0 1-50.11-50.11V63a15 15 0 0 1 30 0v78.77a20.13 20.13 0 0 0 20.11 20.11h78.77a15 15 0 0 1 0 30ZM324.84 300.45a14.92 14.92 0 0 1-10.6-4.4l-43.84-43.84-43.85 43.84a15 15 0 1 1-21.21-21.21l54.45-54.45a15 15 0 0 1 21.21 0l54.45 54.45a15 15 0 0 1-10.61 25.61Z" fill="#ffffff" class="fill-000000"></path><path d="M270.4 375a15 15 0 0 1-15-15V241a15 15 0 1 1 30 0v119a15 15 0 0 1-15 15Z" fill="#ffffff" class="fill-000000"></path></g></svg>